<svg xmlns="http://www.w3.org/2000/svg" width="512" height="512" style="enable-background:new 0 0 512 512" xml:space="preserve"><g fill="#2386e8"><path d="M406 512H118c-26.453 0-48-21.523-48-48V240c0-26.477 21.547-48 48-48h288c26.453 0 48 21.523 48 48v224c0 26.477-21.547 48-48 48zM118 224c-8.813 0-16 7.168-16 16v224c0 8.832 7.188 16 16 16h288c8.813 0 16-7.168 16-16V240c0-8.832-7.188-16-16-16zm0 0" data-original="#000000"/><path d="M374 224c-8.832 0-16-7.168-16-16v-80c0-52.93-43.07-96-96-96s-96 43.07-96 96v80c0 8.832-7.168 16-16 16s-16-7.168-16-16v-80C134 57.406 191.406 0 262 0s128 57.406 128 128v80c0 8.832-7.168 16-16 16zm0 0" data-original="#000000"/></g></svg>